{
    "asset" : {
        "generator" : "Khronos glTF Blender I/O v0.9.16",
        "version" : "2.0"
    },
    "scene" : 0,
    "scenes" : [
        {
            "name" : "Scene",
            "nodes" : [
                0,
                1,
                2,
                3,
                4,
                5,
                6,
                7
            ]
        }
    ],
    "nodes" : [
        {
            "name" : "Light",
            "rotation" : [
                0.16907575726509094,
                0.7558803558349609,
                -0.27217137813568115,
                0.570947527885437
            ],
            "translation" : [
                4.076245307922363,
                5.903861999511719,
                -1.0054539442062378
            ]
        },
        {
            "name" : "Camera",
            "rotation" : [
                0.483536034822464,
                0.33687159419059753,
                -0.20870360732078552,
                0.7804827094078064
            ],
            "translation" : [
                7.358891487121582,
                4.958309173583984,
                6.925790786743164
            ]
        },
        {
            "mesh" : 0,
            "name" : "GrayBackground",
            "rotation" : [
                0.7071068286895752,
                0,
                0,
                0.7071067094802856
            ]
        },
        {
            "mesh" : 1,
            "name" : "MaterialBase",
            "rotation" : [
                0.7071068286895752,
                0,
                0,
                0.7071067094802856
            ]
        },
        {
            "mesh" : 2,
            "name" : "Cushion",
            "rotation" : [
                0.7071068286895752,
                0,
                0,
                0.7071067094802856
            ]
        },
        {
            "mesh" : 3,
            "name" : "GrayInlay",
            "rotation" : [
                0.7071068286895752,
                0,
                0,
                0.7071067094802856
            ]
        },
        {
            "mesh" : 4,
            "name" : "MaterialBaseInside",
            "rotation" : [
                0.7071068286895752,
                0,
                0,
                0.7071067094802856
            ]
        },
        {
            "mesh" : 5,
            "name" : "MaterialSphere",
            "rotation" : [
                0.7071068286895752,
                0,
                0,
                0.7071067094802856
            ]
        }
    ],
    "materials" : [
        {
            "doubleSided" : true,
            "name" : "Inside",
            "pbrMetallicRoughness" : {
                "baseColorFactor" : [
                    0.6399999856948853,
                    0.6399999856948853,
                    0.6399999856948853,
                    1
                ],
                "metallicFactor" : 0,
                "roughnessFactor" : 0.6732679605484009
            }
        },
        {
            "doubleSided" : true,
            "name" : "Outside",
            "pbrMetallicRoughness" : {
                "baseColorFactor" : [
                    0.6399999856948853,
                    0.6399999856948853,
                    0.6399999856948853,
                    1
                ],
                "metallicFactor" : 0,
                "roughnessFactor" : 0.6732679605484009
            }
        },
        {
            "doubleSided" : true,
            "name" : "Base",
            "pbrMetallicRoughness" : {
                "baseColorFactor" : [
                    0.6399999856948853,
                    0.6399999856948853,
                    0.6399999856948853,
                    1
                ],
                "metallicFactor" : 0,
                "roughnessFactor" : 0.6732679605484009
            }
        }
    ],
    "meshes" : [
        {
            "name" : "GrayBackground",
            "primitives" : [
                {
                    "attributes" : {
                        "POSITION" : 0,
                        "NORMAL" : 1,
                        "TEXCOORD_0" : 2
                    },
                    "indices" : 3,
                    "material" : 0
                }
            ]
        },
        {
            "name" : "MaterialBase",
            "primitives" : [
                {
                    "attributes" : {
                        "POSITION" : 4,
                        "NORMAL" : 5,
                        "TEXCOORD_0" : 6
                    },
                    "indices" : 7,
                    "material" : 1
                }
            ]
        },
        {
            "name" : "Cushion",
            "primitives" : [
                {
                    "attributes" : {
                        "POSITION" : 8,
                        "NORMAL" : 9,
                        "TEXCOORD_0" : 10
                    },
                    "indices" : 11,
                    "material" : 2
                }
            ]
        },
        {
            "name" : "GrayInlay",
            "primitives" : [
                {
                    "attributes" : {
                        "POSITION" : 12,
                        "NORMAL" : 13,
                        "TEXCOORD_0" : 14
                    },
                    "indices" : 15,
                    "material" : 0
                }
            ]
        },
        {
            "name" : "MaterialBaseInside",
            "primitives" : [
                {
                    "attributes" : {
                        "POSITION" : 16,
                        "NORMAL" : 17,
                        "TEXCOORD_0" : 18
                    },
                    "indices" : 19,
                    "material" : 1
                }
            ]
        },
        {
            "name" : "MaterialSphere",
            "primitives" : [
                {
                    "attributes" : {
                        "POSITION" : 20,
                        "NORMAL" : 21,
                        "TEXCOORD_0" : 22
                    },
                    "indices" : 23,
                    "material" : 1
                }
            ]
        }
    ],
    "accessors" : [
        {
            "bufferView" : 0,
            "componentType" : 5126,
            "count" : 2485,
            "max" : [
                0.8911640048027039,
                0.8869829773902893,
                -0.7581719756126404
            ],
            "min" : [
                -0.8911640048027039,
                -0.45415198802948,
                -2.4083149433135986
            ],
            "type" : "VEC3"
        },
        {
            "bufferView" : 1,
            "componentType" : 5126,
            "count" : 2485,
            "type" : "VEC3"
        },
        {
            "bufferView" : 2,
            "componentType" : 5126,
            "count" : 2485,
            "type" : "VEC2"
        },
        {
            "bufferView" : 3,
            "componentType" : 5123,
            "count" : 14592,
            "type" : "SCALAR"
        },
        {
            "bufferView" : 4,
            "componentType" : 5126,
            "count" : 5288,
            "max" : [
                1.3456979990005493,
                0.9541329741477966,
                -0.02128800004720688
            ],
            "min" : [
                -1.3456979990005493,
                -1.3456979990005493,
                -0.36055999994277954
            ],
            "type" : "VEC3"
        },
        {
            "bufferView" : 5,
            "componentType" : 5126,
            "count" : 5288,
            "type" : "VEC3"
        },
        {
            "bufferView" : 6,
            "componentType" : 5126,
            "count" : 5288,
            "type" : "VEC2"
        },
        {
            "bufferView" : 7,
            "componentType" : 5123,
            "count" : 30072,
            "type" : "SCALAR"
        },
        {
            "bufferView" : 8,
            "componentType" : 5126,
            "count" : 14490,
            "max" : [
                0.7789040207862854,
                0.7790610194206238,
                -0.1599999964237213
            ],
            "min" : [
                -0.7788969874382019,
                -0.7788209915161133,
                -0.3207769989967346
            ],
            "type" : "VEC3"
        },
        {
            "bufferView" : 9,
            "componentType" : 5126,
            "count" : 14490,
            "type" : "VEC3"
        },
        {
            "bufferView" : 10,
            "componentType" : 5126,
            "count" : 14490,
            "type" : "VEC2"
        },
        {
            "bufferView" : 11,
            "componentType" : 5123,
            "count" : 81312,
            "type" : "SCALAR"
        },
        {
            "bufferView" : 12,
            "componentType" : 5126,
            "count" : 1444,
            "max" : [
                0.8944720029830933,
                0.8063899874687195,
                -0.7163209915161133
            ],
            "min" : [
                -0.8944720029830933,
                -0.8045600056648254,
                -2.327270984649658
            ],
            "type" : "VEC3"
        },
        {
            "bufferView" : 13,
            "componentType" : 5126,
            "count" : 1444,
            "type" : "VEC3"
        },
        {
            "bufferView" : 14,
            "componentType" : 5126,
            "count" : 1444,
            "type" : "VEC2"
        },
        {
            "bufferView" : 15,
            "componentType" : 5123,
            "count" : 7680,
            "type" : "SCALAR"
        },
        {
            "bufferView" : 16,
            "componentType" : 5126,
            "count" : 3123,
            "max" : [
                0.8388779759407043,
                0.8388779759407043,
                -0.02056100033223629
            ],
            "min" : [
                -0.8388779759407043,
                -0.8388779759407043,
                -0.7719510197639465
            ],
            "type" : "VEC3"
        },
        {
            "bufferView" : 17,
            "componentType" : 5126,
            "count" : 3123,
            "type" : "VEC3"
        },
        {
            "bufferView" : 18,
            "componentType" : 5126,
            "count" : 3123,
            "type" : "VEC2"
        },
        {
            "bufferView" : 19,
            "componentType" : 5123,
            "count" : 17280,
            "type" : "SCALAR"
        },
        {
            "bufferView" : 20,
            "componentType" : 5126,
            "count" : 9197,
            "max" : [
                1.1614630222320557,
                1.155418038368225,
                -0.36279600858688354
            ],
            "min" : [
                -1.1614630222320557,
                -1.158059000968933,
                -2.6776459217071533
            ],
            "type" : "VEC3"
        },
        {
            "bufferView" : 21,
            "componentType" : 5126,
            "count" : 9197,
            "type" : "VEC3"
        },
        {
            "bufferView" : 22,
            "componentType" : 5126,
            "count" : 9197,
            "type" : "VEC2"
        },
        {
            "bufferView" : 23,
            "componentType" : 5123,
            "count" : 52560,
            "type" : "SCALAR"
        }
    ],
    "bufferViews" : [
        {
            "buffer" : 0,
            "byteLength" : 29820,
            "byteOffset" : 0
        },
        {
            "buffer" : 0,
            "byteLength" : 29820,
            "byteOffset" : 29820
        },
        {
            "buffer" : 0,
            "byteLength" : 19880,
            "byteOffset" : 59640
        },
        {
            "buffer" : 0,
            "byteLength" : 29184,
            "byteOffset" : 79520
        },
        {
            "buffer" : 0,
            "byteLength" : 63456,
            "byteOffset" : 108704
        },
        {
            "buffer" : 0,
            "byteLength" : 63456,
            "byteOffset" : 172160
        },
        {
            "buffer" : 0,
            "byteLength" : 42304,
            "byteOffset" : 235616
        },
        {
            "buffer" : 0,
            "byteLength" : 60144,
            "byteOffset" : 277920
        },
        {
            "buffer" : 0,
            "byteLength" : 173880,
            "byteOffset" : 338064
        },
        {
            "buffer" : 0,
            "byteLength" : 173880,
            "byteOffset" : 511944
        },
        {
            "buffer" : 0,
            "byteLength" : 115920,
            "byteOffset" : 685824
        },
        {
            "buffer" : 0,
            "byteLength" : 162624,
            "byteOffset" : 801744
        },
        {
            "buffer" : 0,
            "byteLength" : 17328,
            "byteOffset" : 964368
        },
        {
            "buffer" : 0,
            "byteLength" : 17328,
            "byteOffset" : 981696
        },
        {
            "buffer" : 0,
            "byteLength" : 11552,
            "byteOffset" : 999024
        },
        {
            "buffer" : 0,
            "byteLength" : 15360,
            "byteOffset" : 1010576
        },
        {
            "buffer" : 0,
            "byteLength" : 37476,
            "byteOffset" : 1025936
        },
        {
            "buffer" : 0,
            "byteLength" : 37476,
            "byteOffset" : 1063412
        },
        {
            "buffer" : 0,
            "byteLength" : 24984,
            "byteOffset" : 1100888
        },
        {
            "buffer" : 0,
            "byteLength" : 34560,
            "byteOffset" : 1125872
        },
        {
            "buffer" : 0,
            "byteLength" : 110364,
            "byteOffset" : 1160432
        },
        {
            "buffer" : 0,
            "byteLength" : 110364,
            "byteOffset" : 1270796
        },
        {
            "buffer" : 0,
            "byteLength" : 73576,
            "byteOffset" : 1381160
        },
        {
            "buffer" : 0,
            "byteLength" : 105120,
            "byteOffset" : 1454736
        }
    ],
    "buffers" : [
        {
            "byteLength" : 1559856,
            "uri" : "shader_ball.bin"
        }
    ]
}
